HIERARCHY
ROOT ui
{
	 OFFSET 0 0 0
	 CHANNELS 3 XPosition YPosition Z Position
	 EndSite
	 {
	 OFFSET 0 -1 0
	 }
}
ROOT li
{
	 OFFSET 0 0 0
	 CHANNELS 3 XPosition YPosition Z Position
	 EndSite
	 {
	 OFFSET 0 -1 0
	 }
}
ROOT ul
{
	 OFFSET 0 0 0
	 CHANNELS 3 XPosition YPosition Z Position
	 EndSite
	 {
	 OFFSET 0 -1 0
	 }
}
ROOT ll
{
	 OFFSET 0 0 0
	 CHANNELS 3 XPosition YPosition Z Position
	 EndSite
	 {
	 OFFSET 0 -1 0
	 }
}
ROOT tt
{
	 OFFSET 0 0 0
	 CHANNELS 3 XPosition YPosition Z Position
	 EndSite
	 {
	 OFFSET 0 -1 0
	 }
}
ROOT tb
{
	 OFFSET 0 0 0
	 CHANNELS 3 XPosition YPosition Z Position
	 EndSite
	 {
	 OFFSET 0 -1 0
	 }
}
ROOT td
{
	 OFFSET 0 0 0
	 CHANNELS 3 XPosition YPosition Z Position
	 EndSite
	 {
	 OFFSET 0 -1 0
	 }
}
ROOT v
{
	 OFFSET 0 0 0
	 CHANNELS 3 XPosition YPosition Z Position
	 EndSite
	 {
	 OFFSET 0 -1 0
	 }
}
ROOT bn
{
	 OFFSET 0 0 0
	 CHANNELS 3 XPosition YPosition Z Position
	 EndSite
	 {
	 OFFSET 0 -1 0
	 }
}
MOTION
Frames: 24
Frame Time: 0.002
-1.5657100081443786E-4	1.6069300472736358E-4	0		0.4629223327636719	-2.477278076171875	0		-1.042600341796875	-0.012641132354736328	0		-0.7395532836914063	-2.38695947265625	0		1.133911865234375	-0.8329718627929688	0		2.877973388671875	-0.07262566375732422	0		4.4996806640625	0.10298170471191406	0		5.52494580078125	0.05510503387451172	0		-0.15858074951171874	5.91434130859375	0		
0.025690574645996094	-3.025769889354706E-4	0		0.4769143981933594	-2.473497802734375	0		-1.04682470703125	-0.016550559997558594	0		-0.7396383666992188	-2.38693896484375	0		1.1337857666015625	-0.832902099609375	0		2.870635009765625	-0.0823726348876953	0		4.49468603515625	0.1112353744506836	0		5.5157978515625	0.05546461868286133	0		-0.1730947723388672	5.90364990234375	0		
-4.6365898847579957E-4	2.4782900512218477E-4	0		0.4586669921875	-2.4810888671875	0		-1.0469833984375	-0.016529935836791992	0		-0.7417749633789062	-2.38887158203125	0		1.0983890380859376	-0.7941373291015625	0		2.86871044921875	-0.07021588897705078	0		4.49936865234375	0.10330191040039062	0		5.51563720703125	0.05565227508544922	0		-0.15823298645019532	5.9124013671875	0		
-6.326810121536255E-4	3.033689856529236E-4	0		0.4605970153808594	-2.47906103515625	0		-1.1111593017578125	-0.016264535903930663	0		-0.7757826538085938	-2.383178955078125	0		1.133499267578125	-0.8327426147460938	0		2.910072021484375	-0.09489625549316406	0		4.5064462890625	0.11633016967773438	0		5.5237548828125	0.0706857681274414	0		-0.1433566589355469	5.92216162109375	0		
0.0032643699645996094	0.0042901310920715335	0		0.4656099548339844	-2.472083251953125	0		-1.103185546875	-0.008381720542907714	0		-0.7338558959960938	-2.380942626953125	0		1.1364161376953126	-0.8287099609375	0		2.872461181640625	-0.06503606414794921	0		4.501400390625	0.12359576416015625	0		5.52943798828125	0.06376580429077149	0		-0.15886509704589843	5.912513671875	0		
-0.0010024960041046143	4.4217100739479066E-4	0		0.4903738708496094	-2.477479248046875	0		-1.0393876953125	-0.00956458854675293	0		-0.7380693969726563	-2.38480712890625	0		1.136244140625	-0.8286102905273437	0		2.862907958984375	-0.08372075653076172	0		4.498822265625	0.10381292724609376	0		5.519248046875	0.06415631103515625	0		-0.17337786865234375	5.90285595703125	0		
-0.0012052270174026489	5.259420275688172E-4	0		0.4861473693847656	-2.481307373046875	0		-1.043647216796875	-0.012425286293029785	0		-0.7422979125976562	-2.388661376953125	0		1.1329825439453125	-0.8324440307617188	0		2.86270703125	-0.08357640838623047	0		4.4986171875	0.10399187469482422	0		5.52388916015625	0.05626214599609375	0		-0.17468601989746094	5.903955078125	0		
-0.0014212549924850465	6.189669966697693E-4	0		0.4839233703613281	-2.484165771484375	0		-1.0438629150390626	-0.012352977752685547	0		-0.7424664306640625	-2.3885830078125	0		1.1327830810546875	-0.8323284912109375	0		2.880258544921875	-0.09577012634277343	0		4.4983994140625	0.10417432403564453	0		5.51467333984375	0.056637901306152344	0		-0.15984919738769532	5.9127548828125	0		
-0.004708387851715088	-0.002221096038818359	0		0.45780191040039064	-2.48055615234375	0		-1.0440927734375	-0.012270580291748047	0		-0.7426520385742188	-2.3884951171875	0		1.1325684814453125	-0.83220556640625	0		2.86753173828125	-0.06936994171142578	0		4.49816748046875	0.10435985565185547	0		5.52859326171875	0.0645721206665039	0		-0.16018931579589843	5.912853515625	0		
-0.0018957409858703614	8.308740258216858E-4	0		0.46167660522460935	-2.476515625	0		-1.1083443603515626	-0.011950946807861329	0		-0.7387789306640625	-2.38447509765625	0		1.135414794921875	-0.828134033203125	0		2.8678857421875	-0.09022528839111328	0		4.4979208984375	0.10454816436767578	0		5.518349609375	0.06497012329101562	0		-0.16053643798828124	5.9129609375	0		
-0.002153943061828613	9.489409923553467E-4	0		0.48741534423828126	-2.478887939453125	0		-1.0405382080078125	-0.00915456771850586	0		-0.7410365600585938	-2.386330322265625	0		1.1320938720703124	-0.8319393310546875	0		2.888874267578125	-0.07746563720703124	0		4.4928154296875	0.11283330535888672	0		5.52293603515625	0.057083076477050784	0		-0.17507925415039063	5.9033466796875	0		
-0.00242480993270874	0.0010745810270309448	0		0.4571488037109375	-2.48018017578125	0		-1.119832763671875	-0.009531429290771484	0		-0.7433096313476563	-2.388177001953125	0		1.1259705810546874	-0.82468310546875	0		2.874396484375	-0.08802663421630859	0		4.49254296875	0.11302623748779297	0		5.513666015625	0.057463760375976565	0		-0.17641915893554688	5.90448828125	0		
-0.0027066030502319338	0.0012072139978408813	0		0.4828392333984375	-2.4835380859375	0		-1.05327978515625	-0.018694791793823242	0		-0.74559619140625	-2.39001611328125	0		1.131565185546875	-0.8316483764648438	0		2.8682509765625	-0.08074061584472657	0		4.49710546875	0.105126953125	0		5.5133837890625	0.05767282485961914	0		-0.17580206298828124	5.903599609375	0		
-0.0029969749450683594	0.0013459939956665039	0		0.43174319458007815	-2.47441943359375	0		-1.1135206298828124	-0.015422662734985352	0		-0.74381787109375	-2.387925537109375	0		1.1312855224609375	-0.8314949951171875	0		2.869884765625	-0.0846023178100586	0		4.48994921875	0.11245633697509766	0		5.5213779296875	0.07272704315185546	0		-0.16001852416992188	5.9114287109375	0		
0.013665513038635254	-8.3468097448349E-4	0		0.48844754028320314	-2.476359375	0		-1.109740966796875	-0.011369497299194335	0		-0.7291642456054688	-2.39207666015625	0		1.134075439453125	-0.8273954467773438	0		2.8877392578125	-0.07676905059814453	0		4.49963037109375	0.11146378326416016	0		5.5210810546875	0.07293791198730469	0		-0.16136717224121094	5.91258984375	0		
-0.0035927228927612304	0.0016373410224914552	0		0.4612388610839844	-2.47269091796875	0		-1.116943603515625	-0.006101984977722168	0		-0.7423191528320312	-2.385690185546875	0		1.1307095947265624	-0.8311767578125	0		2.862101318359375	-0.09410737609863282	0		4.4962158203125	0.10572177124023438	0		5.52149365234375	0.05813296127319336	0		-0.1769042053222656	5.9040234375	0		
-0.0038939681053161623	0.0017871400117874146	0		0.48382742309570315	-2.4799736328125	0		-1.0404495849609374	-0.017432422637939454	0		-0.744631591796875	-2.38751025390625	0		1.1304176025390624	-0.8310142822265625	0		2.872932861328125	-0.08713683319091797	0		4.49106689453125	0.11401573181152344	0		5.512193359375	0.05851616287231445	0		-0.17727128601074219	5.90417138671875	0		
0.002555263042449951	-0.011193484306335448	0		0.4555581359863281	-2.47928369140625	0		-1.0547674560546876	-0.01802598571777344	0		-0.7489825439453125	-2.391290771484375	0		1.1270684814453125	-0.8337935791015625	0		2.881592529296875	-0.08912615203857421	0		4.4956103515625	0.1061215057373047	0		5.5118916015625	0.05872702407836914	0		-0.16246841430664063	5.9130322265625	0		
-0.004495572090148925	0.00208784294128418	0		0.4812232360839844	-2.48262353515625	0		-1.115018310546875	-0.014743800163269044	0		-0.7451809692382813	-2.3872255859375	0		1.129834228515625	-0.8306887817382812	0		2.877580078125	-0.07387091827392578	0		4.49842333984375	0.11226255798339843	0		5.51987548828125	0.0737822265625	0		-0.1628330841064453	5.9131806640625	0		
-0.004792111873626709	0.0022372748851776122	0		0.45909164428710936	-2.475051025390625	0		-1.0372716064453125	-0.01309339141845703	0		-0.7434132080078125	-2.385123046875	0		1.129546875	-0.8305267944335938	0		2.865000732421875	-0.08845813751220703	0		4.49812548828125	0.11246195983886718	0		5.5344228515625	0.0657086181640625	0		-0.16319522094726563	5.91332861328125	0		
0.020912595748901367	0.0018908289670944215	0		0.48478643798828125	-2.477391845703125	0		-1.03756201171875	-0.012956493377685547	0		-0.74571435546875	-2.3869443359375	0		1.129265869140625	-0.830365234375	0		2.885955078125	-0.07567909240722656	0		4.4947197265625	0.10672003936767578	0		5.52000048828125	0.059188121795654296	0		-0.16355303955078124	5.91347509765625	0		
-0.005365425109863281	0.0025333940982818605	0		0.4824949951171875	-2.4792001953125	0		-1.0419200439453125	-0.016744237899780273	0		-0.7120704956054688	-2.39245166015625	0		1.1289927978515626	-0.8302044677734375	0		2.854469482421875	-0.08590589904785156	0		4.49443603515625	0.10692009735107422	0		5.51971728515625	0.05940016555786133	0		-0.17907341003417968	5.904908203125	0		
-0.00869607162475586	-2.635839879512787E-4	0		0.45425567626953123	-2.478516357421875	0		-1.13119677734375	-0.015918438911437988	0		-0.7502900390625	-2.390592041015625	0		1.1287286376953125	-0.8300454711914063	0		2.865327392578125	-0.07893665313720703	0		4.49416064453125	0.10711947631835937	0		5.5104443359375	0.05978300094604492	0		-0.17843751525878906	5.9040322265625	0		
0.003922555923461914	-0.006367400169372559	0		0.4638482971191406	-2.487556884765625	0		-1.11642626953125	-0.014075505256652831	0		-0.7396986694335937	-2.39966650390625	0		1.128473876953125	-0.8298892822265626	0		2.88885009765625	-0.09021331024169922	0		4.49876025390625	0.10022322082519532	0		5.51432958984375	0.06791553497314454	0		-0.1626259002685547	5.9118671875	0		
